<svg width="25" height="25" viewBox="0 0 25 25" fill="none" xmlns="http://www.w3.org/2000/svg">
<path d="M21.67 12.98C21.8739 12.3323 21.985 11.6589 22 10.98C22 6.56 17.5 3 13 3C7.48 3 3 6.56 3 10.98C3.01134 12.4217 3.34779 13.8153 4 14.98C4.38036 15.6592 4.82722 16.7365 5.62951 17.6158C6.20294 18.2443 6.95794 18.7716 8 18.98C10.5 19.48 11.625 16.98 10.5 15.48C9.375 13.98 5.68 14.3093 4.34 16.1446C3 17.98 3 19.98 4 21.98" stroke="black" stroke-width="2" stroke-linecap="round" stroke-linejoin="round"/>
<path d="M15.0883 21.9994H15.0096C14.9503 21.9798 14.8983 21.9425 14.8608 21.8925C14.8233 21.8425 14.802 21.7822 14.7998 21.7197V12.9772C14.7998 12.8998 14.8299 12.8255 14.8838 12.77C14.9376 12.7145 15.011 12.6822 15.0883 12.6799C15.1582 12.6799 15.2194 12.7062 15.2719 12.7499L21.6889 17.9954C21.7366 18.0327 21.7714 18.084 21.7883 18.1422C21.8052 18.2004 21.8034 18.2624 21.7831 18.3195C21.7628 18.3766 21.725 18.4258 21.6752 18.4602C21.6253 18.4946 21.5659 18.5124 21.5053 18.5112H17.5799L15.3331 21.877C15.3046 21.915 15.2676 21.9459 15.2251 21.9671C15.1827 21.9884 15.1358 21.9994 15.0883 21.9994Z" stroke="black" stroke-width="2" stroke-linecap="round" stroke-linejoin="round"/>
</svg>
