<svg xmlns="http://www.w3.org/2000/svg" width="100" height="100" fill="none"><path fill="#000000" d="M84.273 80.064 65.668 61.461a1.553 1.553 0 0 0-.215-.187l-4.775-12.229 13.217-10.674a1.496 1.496 0 0 0-.713-2.641l-16.797-2.56-2.633-16.784a1.497 1.497 0 0 0-2.645-.703L40.492 28.95l-15.854-6.11a1.5 1.5 0 0 0-1.598.34 1.492 1.492 0 0 0-.332 1.6l6.18 15.824-13.216 10.673a1.496 1.496 0 0 0 .714 2.641L33.18 56.48l2.636 16.783a1.496 1.496 0 0 0 2.644.702L49.075 60.7l12.117 4.671c.043.087.12.19.248.32l18.605 18.603a2.98 2.98 0 0 0 2.115.877 2.99 2.99 0 0 0 2.113-5.106ZM47.424 57.977l-9.18 11.473-2.279-14.516a1.496 1.496 0 0 0-1.252-1.246l-14.525-2.215 11.431-9.23a1.494 1.494 0 0 0 .454-1.708l-5.346-13.687 13.711 5.285a1.496 1.496 0 0 0 1.705-.46l9.18-11.473 2.28 14.516a1.495 1.495 0 0 0 1.251 1.247l14.525 2.214-11.432 9.231c-.506.41-.69 1.1-.453 1.708l5.344 13.686-13.71-5.285a1.489 1.489 0 0 0-1.704.46Z"/><path fill="#000000" d="m72.371 50.524-.004-.001-6.944-1.799a1.494 1.494 0 0 0-.749 2.895l6.944 1.799a1.495 1.495 0 0 0 .753-2.894ZM28.795 58.854l-5.052 5.093a1.495 1.495 0 0 0 2.124 2.107l5.052-5.094a1.496 1.496 0 1 0-2.124-2.106ZM59.63 31.26c.384 0 .768-.147 1.06-.44l5.062-5.085a1.494 1.494 0 0 0-2.118-2.11l-5.062 5.083a1.495 1.495 0 0 0 1.058 2.551ZM50.179 63.805a1.492 1.492 0 0 0-1.072 1.82l1.796 6.946a1.494 1.494 0 1 0 2.893-.748L52 64.877a1.494 1.494 0 0 0-1.821-1.072ZM39.625 25.754a1.494 1.494 0 0 0 1.04-1.84l-1.922-6.912a1.496 1.496 0 0 0-2.881.801l1.922 6.912a1.495 1.495 0 0 0 1.84 1.039ZM17.076 39.058l6.979 1.667a1.495 1.495 0 0 0 .695-2.909l-6.979-1.667a1.496 1.496 0 0 0-.695 2.909ZM57.704 41.331a1.5 1.5 0 0 0-1.218-1.088l-6.202-.945-.973-6.196a1.494 1.494 0 0 0-2.645-.703l-3.919 4.897-5.854-2.256a1.493 1.493 0 0 0-1.93 1.939l2.281 5.844-4.879 3.941a1.492 1.492 0 0 0 .713 2.64l6.201.946.973 6.196a1.495 1.495 0 0 0 2.645.702l3.918-4.897 5.854 2.256c.175.067.357.101.538.101h.014a1.496 1.496 0 0 0 1.307-2.225l-2.21-5.657 4.88-3.94c.463-.374.661-.984.506-1.555Zm-8.114 3.857a1.496 1.496 0 0 0-.453 1.707l1.445 3.705-3.71-1.43a1.499 1.499 0 0 0-1.706.46l-2.484 3.105-.617-3.929a1.495 1.495 0 0 0-1.25-1.247l-3.932-.6 3.094-2.497c.508-.41.691-1.1.453-1.708l-1.446-3.705 3.71 1.431a1.499 1.499 0 0 0 1.705-.46l2.484-3.105.617 3.928a1.495 1.495 0 0 0 1.252 1.246l3.932.6-3.094 2.5Z"/></svg>
