<svg xmlns="http://www.w3.org/2000/svg" width="100" height="100" fill="none"><path fill="#000" d="m50.624 57.43 1.515 3.63a10.075 10.075 0 0 0-5.048 2.734c-2.405 2.405-3.34 5.73-2.819 8.87a10.19 10.19 0 0 0 2.817 5.53c.016.019.028.036.045.053l5.115 5.115c3.997 3.997 10.48 4.017 14.453.043a10.086 10.086 0 0 0 2.857-5.768 10.26 10.26 0 0 0-.78-5.583 10.232 10.232 0 0 0-2.12-3.102l-5.115-5.115a10.253 10.253 0 0 0-6.23-2.959c.751-1.022 1.3-2.353 1.66-3.905 1.552-.36 2.883-.909 3.905-1.66a10.249 10.249 0 0 0 2.96 6.23l5.114 5.115c3.997 3.997 10.48 4.016 14.453.043 3.972-3.972 3.953-10.454-.044-14.451l-5.115-5.116c-3.997-3.997-10.48-4.016-14.452-.044a10.071 10.071 0 0 0-2.735 5.048l-3.63-1.513c-.239-4.418-1.44-9.596-3.637-14.862-5.252-12.598-14.169-20.889-19.923-18.521l11.89 28.517-28.517-11.887c-2.368 5.751 5.923 14.67 18.522 19.922 5.266 2.195 10.442 3.398 14.86 3.636Zm6.68 10.645 4.159 4.159.956.956a4.218 4.218 0 0 1 .016 5.951c-1.635 1.636-4.303 1.63-5.95-.017l-1.134-1.134-3.98-3.982a4.182 4.182 0 0 1-.959-1.499c-.567-1.499-.26-3.252.94-4.452 1.636-1.637 4.305-1.629 5.952.018ZM74.008 51.37l5.115 5.116c1.647 1.646 1.653 4.314.018 5.95-1.637 1.637-4.304 1.629-5.95-.018l-5.115-5.115c-1.647-1.647-1.656-4.315-.02-5.951 1.636-1.636 4.305-1.628 5.952.019Z"/></svg>