<svg xmlns="http://www.w3.org/2000/svg" width="100" height="100" fill="none"><path fill="#000" d="m84.03 52.553-6.627-3.102a12.723 12.723 0 0 1-3.254 2.127l4.586 2.16-28.843 8.838c-1.54-2.912-5.154-4.962-9.36-4.962-1.367 0-2.671.22-3.863.613L20.337 26.82 44.19 37.81l7.89.01-34.733-16.004a1.648 1.648 0 0 0-2.151 2.255L33.73 59.716c-2.054 1.483-3.354 3.616-3.354 5.995 0 3.879 3.438 7.124 8.014 7.91l-3.946 6.766a1.645 1.645 0 0 0 .592 2.25 1.644 1.644 0 0 0 2.252-.591l4.873-8.353c4.797-.622 8.478-3.923 8.52-7.915l33.144-10.154a1.646 1.646 0 0 0 1.159-1.465 1.644 1.644 0 0 0-.954-1.606ZM33.67 65.71c0-1.143.605-2.205 1.599-3.041l4.033 7.758c-3.156-.42-5.631-2.407-5.631-4.717Zm9.226 4.49-4.677-8.994a9.16 9.16 0 0 1 2.313-.3c3.718 0 6.86 2.2 6.86 4.804 0 2.023-1.902 3.799-4.496 4.49Z"/><path fill="#000" d="M66.273 28.814c.39.389.603.906.603 1.455v7.038c0 .771-.3 1.493-.845 2.038a2.857 2.857 0 0 1-2.036.844l-6.809-.01-7.89-.012-9.726-.013V51.44h26.481a12.697 12.697 0 0 0 8.495-3.26c.176-.158.358-.311.527-.479a12.674 12.674 0 0 0 3.738-9.023v-7.959c0-3.628-1.414-7.039-3.979-9.604a13.493 13.493 0 0 0-9.605-3.979H39.571v11.109l25.247-.033a2.06 2.06 0 0 1 1.455.602ZM51.097 48.971h-9.056v-6.312h9.056v6.312Zm0-23.229h-9.056v-6.135h9.056v6.135Z"/></svg>