<svg xmlns="http://www.w3.org/2000/svg" width="100" height="100" fill="none"><path fill="#000" d="M82.833 68.167a2 2 0 0 0-2 2v8h-8a2 2 0 0 0 0 4h10a2 2 0 0 0 2-2v-10a2 2 0 0 0-2-2Zm-21.416 10H38.584a2 2 0 0 0 0 4h22.833a2 2 0 0 0 0-4Zm-34.25 0h-8v-8a2 2 0 0 0-4 0v10a2 2 0 0 0 2 2h10a2 2 0 0 0 0-4Zm-10-16.084a2 2 0 0 0 2-2V39.917a2 2 0 0 0-4 0v20.166a2 2 0 0 0 2 2Zm10-44.25h-10a2 2 0 0 0-2 2v10a2 2 0 0 0 4 0v-8h8a2 2 0 0 0 0-4Zm34.25 0H38.583a2 2 0 0 0 0 4h22.834a2 2 0 0 0 0-4Zm21.416 0h-10a2 2 0 0 0 0 4h8v8a2 2 0 0 0 4 0v-10a2 2 0 0 0-2-2Zm0 20.084a2 2 0 0 0-2 2v20.167a2 2 0 0 0 4 0V39.917a2 2 0 0 0-2-2Z"/></svg>