<svg xmlns="http://www.w3.org/2000/svg" width="100" height="100" fill="none"><path fill="#000" d="M84.76 35.168C83.316 26.992 72.492 21.5 57.822 21.5a64.4 64.4 0 0 0-11.14.998c-19.493 3.441-33.303 14.395-31.442 24.94.738 4.189 3.947 7.672 8.867 10.074-.748 1.127-1.186 2.406-1.186 3.77 0 3.893 3.453 7.152 8.045 7.941l-3.963 6.791a1.653 1.653 0 0 0 1.428 2.487c.568 0 1.121-.293 1.43-.82l4.891-8.387c4.824-.625 8.523-3.949 8.553-7.965.002-.016.004-.031.004-.047 0-.068-.01-.133-.014-.199a64.705 64.705 0 0 0 10.023-.975c19.493-3.44 33.303-14.395 31.442-24.94ZM26.23 61.281c0-.895.372-1.742 1.01-2.469.354.125.714.244 1.081.359l3.561 6.846c-3.169-.421-5.653-2.417-5.653-4.736Zm9.258 4.508-2.887-5.549-1.809-3.48a9.352 9.352 0 0 1 2.323-.299c1.475 0 2.854.348 3.988.924 1.658.844 2.781 2.184 2.883 3.676.004.074.016.146.016.221 0 2.032-1.91 3.814-4.514 4.507Zm17.227-9.1a60.811 60.811 0 0 1-10.496.945c-1.678-2.654-5.127-4.48-9.104-4.48a12.39 12.39 0 0 0-3.877.615 10.89 10.89 0 0 0-2.453 1.164c-4.553-1.916-7.533-4.74-8.127-8.1-1.47-8.34 11.64-17.918 28.627-20.916a60.71 60.71 0 0 1 10.537-.945c12.725 0 22.396 4.439 23.52 10.799 1.47 8.34-11.639 17.92-28.627 20.918Z"/></svg>