<svg xmlns="http://www.w3.org/2000/svg" width="512" height="512" fill="none"><rect width="512" height="512" fill="#fff" rx="100"/><path fill="#000" fill-rule="evenodd" d="M114.334 230.602c.174 20.921 4.924 40.709 13.698 57.049 13.215-7.962 28.632-12.428 42.973-13.874 11.988-1.209 24.32-.454 35.464 2.756 11.057 3.185 22.029 9.131 29.531 19.133 13.75 18.333 13.557 42.406 2.755 60.286-11.347 18.781-33.615 29.872-61.023 24.391-21.505-4.301-37.095-15.289-48.552-27.846a109.85 109.85 0 0 1-5.972-7.153c-7.148 19.276-4.76 39.617 6.033 61.202 4.116 8.233.779 18.244-7.454 22.361-8.233 4.116-18.244.779-22.36-7.454-18.124-36.248-19.41-74.507 3.703-109.622-1.269-2.483-2.378-4.64-3.338-6.354-12.419-22.176-18.583-48.23-18.791-74.679l-.001-.132C81 144.465 166.856 81 264.333 81c41.732 0 83.016 16.426 113.955 42.873C409.26 150.348 431 187.935 431 230.666l-.004.369a136.504 136.504 0 0 1-6.265 37.969c-2.764 8.78-12.122 13.657-20.902 10.893-8.78-2.763-13.657-12.121-10.893-20.901a103.168 103.168 0 0 0 4.73-28.513c-.062-30.866-15.81-59.708-41.037-81.273-25.311-21.636-59.027-34.877-92.296-34.877-86.491 0-149.955 55.163-149.999 116.269Zm29.652 86.393c2.816 4.469 5.995 8.845 9.818 13.035 7.657 8.392 17.234 14.98 30.465 17.627 14.258 2.851 22.199-2.725 25.956-8.943 4.302-7.12 4.109-16.381-.891-23.048-1.874-2.497-5.631-5.241-12.092-7.102-6.373-1.836-14.349-2.484-22.892-1.622-11.54 1.164-22.249 4.828-30.364 10.053Zm167.011-28.112v81.729l15.806-23.679a16.667 16.667 0 0 1 13.862-7.414h32.277l-61.945-50.636Zm1.788-41.591c-3.356-2.769-8.015-4.96-13.646-4.96a21.621 21.621 0 0 0-21.475 21.621v145.708c0 .196.003.392.01.587a21.765 21.765 0 0 0 14.925 19.901c1.687.557 3.452.841 5.228.841h1.312a21.767 21.767 0 0 0 17.413-8.706c.183-.245.359-.493.528-.747l32.499-48.684h56.399a21.478 21.478 0 0 0 20.832-27.469 21.475 21.475 0 0 0-7.206-10.774l-106.819-87.318Z" clip-rule="evenodd"/></svg>