<?xml version="1.0" standalone="no"?>
<!DOCTYPE svg PUBLIC "-//W3C//DTD SVG 20010904//EN"
 "http://www.w3.org/TR/2001/REC-SVG-20010904/DTD/svg10.dtd">
<svg version="1.0" xmlns="http://www.w3.org/2000/svg"
 width="700.000000pt" height="700.000000pt" viewBox="0 0 700.000000 700.000000"
 preserveAspectRatio="xMidYMid meet">
<metadata>
Created by potrace 1.14, written by Peter Selinger 2001-2017
</metadata>
<g transform="translate(0.000000,700.000000) scale(0.100000,-0.100000)"
fill="#000000" stroke="none">
<path d="M3418 6995 c-2 -1 -46 -5 -98 -9 -52 -4 -106 -8 -120 -10 -14 -3 -52
-7 -85 -11 -78 -8 -217 -31 -335 -55 -30 -6 -66 -13 -80 -16 -14 -3 -33 -7
-42 -10 -9 -3 -26 -7 -37 -9 -50 -9 -225 -60 -335 -96 -477 -158 -906 -396
-1275 -704 -428 -359 -747 -831 -902 -1334 -16 -52 -31 -103 -34 -115 -62
-297 -69 -365 -69 -621 -1 -173 5 -291 18 -385 3 -19 8 -55 11 -80 7 -50 12
-83 20 -120 3 -14 8 -41 11 -60 27 -147 100 -390 165 -548 38 -91 121 -261
185 -379 l28 -51 -26 -39 c-116 -170 -246 -486 -281 -683 -4 -22 -12 -62 -23
-125 -6 -33 -17 -196 -18 -260 0 -69 12 -258 19 -295 3 -14 7 -36 10 -50 2
-14 7 -41 10 -60 40 -243 192 -645 288 -755 83 -97 251 -134 368 -82 138 61
211 178 205 327 -3 55 -12 85 -54 177 -147 320 -200 598 -169 883 8 75 39 210
60 258 l13 32 34 -42 c281 -354 650 -576 1100 -663 159 -31 387 -22 540 21
304 85 545 283 679 559 33 68 77 187 84 231 3 16 10 51 15 77 14 70 15 250 2
337 -20 131 -104 353 -156 411 -8 8 -14 21 -14 27 0 7 -4 12 -8 12 -4 0 -15
13 -25 29 -29 49 -147 159 -232 216 -225 151 -503 227 -840 228 -116 1 -281
-9 -294 -17 -4 -3 -34 -8 -66 -11 -88 -10 -309 -68 -416 -110 -52 -20 -143
-61 -203 -91 -59 -30 -109 -54 -110 -52 0 2 -11 23 -23 48 -116 235 -199 527
-229 805 -4 33 -8 74 -10 90 -5 46 -5 337 0 365 3 14 7 45 10 70 13 115 63
302 116 435 239 602 797 1118 1510 1398 164 64 390 134 490 152 18 3 36 8 40
10 4 2 22 7 41 10 19 3 45 8 59 10 58 12 80 16 175 30 55 8 136 17 179 20 44
4 94 8 110 11 40 5 445 6 472 0 11 -2 47 -7 80 -10 184 -20 422 -74 614 -141
628 -220 1173 -652 1482 -1176 137 -232 236 -511 263 -744 4 -27 8 -61 11 -75
6 -39 6 -259 -1 -320 -13 -109 -37 -236 -69 -362 -25 -94 -32 -143 -30 -185
12 -168 159 -304 329 -304 115 0 233 67 289 164 21 38 71 191 83 257 2 14 10
52 18 85 37 162 53 343 49 550 -2 105 -5 201 -8 215 -2 14 -7 46 -10 70 -3 25
-8 55 -10 66 -2 12 -7 39 -10 60 -11 71 -74 299 -109 395 -109 298 -266 573
-480 839 -94 117 -283 313 -397 412 -536 464 -1226 772 -1910 853 -30 4 -66 9
-80 12 -27 5 -556 13 -562 8z m-1218 -4519 c14 -2 40 -7 59 -10 53 -10 170
-54 216 -81 55 -32 102 -86 132 -151 31 -69 35 -85 34 -175 0 -179 -106 -327
-274 -383 -178 -59 -463 3 -687 150 -98 63 -268 235 -352 354 l-67 95 22 17
c90 71 370 165 544 184 32 3 59 7 61 9 5 4 282 -3 312 -9z"/>
<path d="M4269 3760 c-161 -40 -277 -152 -322 -315 -12 -42 -14 -295 -13
-1575 2 -1441 3 -1528 20 -1575 41 -116 123 -205 236 -258 147 -70 347 -35
468 83 29 27 176 238 371 530 178 267 329 491 337 499 11 12 113 14 616 16
518 1 610 4 650 17 214 71 339 292 288 508 -31 133 -64 170 -405 447 -165 135
-311 255 -325 267 -14 12 -122 100 -240 196 -118 96 -220 179 -226 185 -6 5
-28 24 -49 40 -21 17 -54 44 -75 60 -20 17 -56 46 -79 65 -24 19 -54 44 -66
55 -13 11 -76 63 -141 115 -64 52 -158 129 -208 170 -260 215 -472 385 -514
414 -93 62 -213 83 -323 56z m676 -1200 c171 -139 328 -267 350 -286 208 -170
366 -299 444 -363 l95 -76 -360 -5 -359 -5 -55 -26 c-30 -14 -70 -38 -88 -53
-17 -16 -107 -140 -198 -277 -91 -137 -167 -249 -170 -249 -2 0 -4 365 -4 812
0 772 1 810 18 796 9 -8 157 -129 327 -268z"/>
</g>
</svg>
