<svg xmlns="http://www.w3.org/2000/svg" width="100" height="100" fill="none"><path fill="#000" d="M18.475 19.04h46.557v6.944h3.47v-8.681c0-.96-.776-1.736-1.733-1.736h-50.03c-.96 0-1.735.776-1.735 1.736v52.372c0 .959.775 1.736 1.736 1.736h10.096v-3.473h-8.361V19.04Z"/><path fill="#000" d="M42.461 42.331c-.719 0-1.3.583-1.3 1.303a1.3 1.3 0 0 0 1.3 1.302H71.11a1.302 1.302 0 0 0 0-2.605H42.461ZM71.11 51.012H42.46a1.302 1.302 0 0 0 0 2.606H71.11a1.303 1.303 0 0 0 0-2.606ZM54.904 59.692H42.461c-.719 0-1.3.583-1.3 1.303a1.3 1.3 0 0 0 1.3 1.302h12.443a1.3 1.3 0 0 0 1.278-1.547 1.302 1.302 0 0 0-1.278-1.058ZM54.904 68.373H42.461a1.302 1.302 0 0 0 0 2.606h12.443a1.302 1.302 0 0 0 0-2.606Z"/><path fill="#000" d="M83.26 28.588H31.175c-.578 0-1.088.287-1.404.723a1.735 1.735 0 0 0-.332 1.014v52.372c0 .96.78 1.736 1.736 1.736H61.559a1.73 1.73 0 0 0 1.242-.524l.35-.359 20.42-20.962.934-.958c.316-.324.492-.76.492-1.212V30.324a1.737 1.737 0 0 0-1.736-1.736ZM63.15 78.573V62.587h15.572L63.15 78.573Zm18.372-18.861-.264.271H61.85c-.72 0-1.304.584-1.304 1.303V80.96H32.91V32.061h48.611v27.651Z"/></svg>