<svg width="512" height="512" viewBox="0 0 512 512" fill="none" xmlns="http://www.w3.org/2000/svg">
<rect width="512" height="512" fill="white"/>
<path fill-rule="evenodd" clip-rule="evenodd" d="M114.334 230.602C114.508 251.523 119.258 271.311 128.032 287.651C141.248 279.689 156.664 275.223 171.005 273.777C182.993 272.568 195.325 273.323 206.469 276.533C217.526 279.718 228.499 285.664 236 295.666C249.75 313.999 249.557 338.072 238.755 355.952C227.408 374.733 205.14 385.824 177.732 380.343C156.227 376.042 140.637 365.054 129.18 352.497C127.077 350.192 125.088 347.792 123.208 345.344C116.06 364.62 118.448 384.96 129.241 406.546C133.357 414.779 130.02 424.79 121.787 428.907C113.554 433.023 103.543 429.686 99.4267 421.453C81.3028 385.205 80.0175 346.946 103.13 311.831C101.861 309.348 100.752 307.191 99.7921 305.476C87.3734 283.301 81.2091 257.247 81.001 230.798L81 230.666C81 144.465 166.856 81 264.334 81C306.065 81 347.349 97.4258 378.288 123.873C409.26 150.348 431 187.935 431 230.666L430.996 231.035C430.711 243.923 428.602 256.707 424.731 269.004C421.967 277.784 412.609 282.661 403.829 279.897C395.049 277.134 390.172 267.776 392.936 258.995C395.843 249.76 397.435 240.162 397.667 230.483C397.604 199.617 381.857 170.775 356.629 149.21C331.318 127.574 297.602 114.333 264.334 114.333C177.842 114.333 114.378 169.496 114.334 230.602ZM143.986 316.995C146.802 321.464 149.981 325.84 153.804 330.03C161.461 338.422 171.038 345.01 184.269 347.657C198.527 350.508 206.468 344.932 210.225 338.714C214.527 331.594 214.334 322.333 209.334 315.666C207.46 313.169 203.703 310.425 197.242 308.564C190.869 306.728 182.893 306.08 174.35 306.942C162.81 308.106 152.101 311.77 143.986 316.995ZM310.997 288.883V370.612L326.804 346.933C329.895 342.301 335.096 339.519 340.665 339.519H372.942L310.997 288.883ZM312.785 247.292C309.429 244.523 304.77 242.332 299.139 242.332C298.975 242.332 298.812 242.334 298.648 242.339C293.025 242.505 287.688 244.855 283.77 248.892C279.853 252.927 277.663 258.33 277.664 263.953V409.661C277.664 409.857 277.667 410.052 277.674 410.248C277.831 414.693 279.345 418.983 282.014 422.541C284.682 426.099 288.377 428.754 292.6 430.149C294.286 430.706 296.051 430.99 297.827 430.99H299.139C302.518 430.99 305.851 430.203 308.873 428.692C311.895 427.181 314.524 424.987 316.552 422.283C316.735 422.039 316.911 421.79 317.08 421.537L349.579 372.853H405.978C410.405 372.896 414.739 371.57 418.385 369.054C422.097 366.493 424.908 362.828 426.42 358.58C427.932 354.331 428.069 349.715 426.81 345.384C425.575 341.134 423.057 337.372 419.604 334.61L312.785 247.292Z" fill="black"/>
</svg>
