<svg xmlns="http://www.w3.org/2000/svg" width="32" height="32" fill="none"><rect width="32" height="32" fill="#fff" rx="5"/><path stroke="#000" stroke-linecap="round" stroke-linejoin="round" stroke-width="2" d="M11 26a5 5 0 0 1-2-4M11 20.93c.96.43 1.96.74 2.99.91M7.34 18A6.8 6.8 0 0 1 6 14c0-4.42 4.48-8 10-8s10 3.58 10 8a7.19 7.19 0 0 1-.33 2"/><path stroke="#000" stroke-linecap="round" stroke-linejoin="round" stroke-width="2" d="M9 22a2 2 0 1 0 0-4 2 2 0 0 0 0 4ZM18.33 26h-.09a.35.35 0 0 1-.24-.32v-10a.34.34 0 0 1 .33-.34c.08 0 .15.03.21.08l7.34 6a.33.33 0 0 1-.21.59h-4.49l-2.57 3.85a.35.35 0 0 1-.28.14Z"/></svg>